<svg width="100" height="100" viewBox="0 0 100 100" fill="none" xmlns="http://www.w3.org/2000/svg">
<circle cx="50" cy="50" r="47.5" stroke="url(#paint0_linear)" stroke-width="5"/>
<path d="M54.84 32.496V66H48.12V44.208L39.144 66H34.056L25.032 44.208V66H18.312V32.496H25.944L36.6 57.408L47.256 32.496H54.84Z" fill="url(#paint1_angular)"/>
<path d="M73.0519 66.336C70.7159 66.336 68.6039 65.936 66.7159 65.136C64.8599 64.336 63.3879 63.184 62.2999 61.68C61.2119 60.176 60.6519 58.4 60.6199 56.352H67.8199C67.9159 57.728 68.3959 58.816 69.2599 59.616C70.1559 60.416 71.3719 60.816 72.9079 60.816C74.4759 60.816 75.7079 60.448 76.6039 59.712C77.4999 58.944 77.9479 57.952 77.9479 56.736C77.9479 55.744 77.6439 54.928 77.0359 54.288C76.4279 53.648 75.6599 53.152 74.7319 52.8C73.8359 52.416 72.5879 52 70.9879 51.552C68.8119 50.912 67.0359 50.288 65.6599 49.68C64.3159 49.04 63.1479 48.096 62.1559 46.848C61.1959 45.568 60.7159 43.872 60.7159 41.76C60.7159 39.776 61.2119 38.048 62.2039 36.576C63.1959 35.104 64.5879 33.984 66.3799 33.216C68.1719 32.416 70.2199 32.016 72.5239 32.016C75.9799 32.016 78.7799 32.864 80.9239 34.56C83.0999 36.224 84.2999 38.56 84.5239 41.568H77.1319C77.0679 40.416 76.5719 39.472 75.6439 38.736C74.7479 37.968 73.5479 37.584 72.0439 37.584C70.7319 37.584 69.6759 37.92 68.8759 38.592C68.1079 39.264 67.7239 40.24 67.7239 41.52C67.7239 42.416 68.0119 43.168 68.5879 43.776C69.1959 44.352 69.9319 44.832 70.7959 45.216C71.6919 45.568 72.9399 45.984 74.5399 46.464C76.7159 47.104 78.4919 47.744 79.8679 48.384C81.2439 49.024 82.4279 49.984 83.4199 51.264C84.4119 52.544 84.9079 54.224 84.9079 56.304C84.9079 58.096 84.4439 59.76 83.5159 61.296C82.5879 62.832 81.2279 64.064 79.4359 64.992C77.6439 65.888 75.5159 66.336 73.0519 66.336Z" fill="url(#paint2_angular)"/>
<defs>
<linearGradient id="paint0_linear" x1="50" y1="0" x2="50" y2="100" gradientUnits="userSpaceOnUse">
<stop stop-color="#3C3B3F"/>
<stop offset="1" stop-color="#46453C"/>
</linearGradient>
<radialGradient id="paint1_angular" cx="0" cy="0" r="1" gradientUnits="userSpaceOnUse" gradientTransform="translate(55.9091 37.7475) rotate(90) scale(24.7475 40.9091)">
<stop stop-color="#3C3B3F"/>
<stop offset="0.0001" stop-color="#3C3B3F"/>
<stop offset="1" stop-color="#605C3C"/>
</radialGradient>
<radialGradient id="paint2_angular" cx="0" cy="0" r="1" gradientUnits="userSpaceOnUse" gradientTransform="translate(55.9091 37.7475) rotate(90) scale(24.7475 40.9091)">
<stop stop-color="#F7971E"/>
<stop offset="1" stop-color="#FFD200"/>
</radialGradient>
</defs>
</svg>
