<svg width="392" height="51" viewBox="0 0 392 51" fill="none" xmlns="http://www.w3.org/2000/svg">
<path d="M47.648 5.52V50H40.352V19.536L26.784 50H21.728L8.096 19.536V50H0.8V5.52H8.672L24.288 40.4L39.84 5.52H47.648ZM60.9495 10.064C59.6268 10.064 58.5175 9.616 57.6215 8.72C56.7255 7.824 56.2775 6.71467 56.2775 5.392C56.2775 4.06933 56.7255 2.96 57.6215 2.064C58.5175 1.168 59.6268 0.719997 60.9495 0.719997C62.2295 0.719997 63.3175 1.168 64.2135 2.064C65.1095 2.96 65.5575 4.06933 65.5575 5.392C65.5575 6.71467 65.1095 7.824 64.2135 8.72C63.3175 9.616 62.2295 10.064 60.9495 10.064ZM64.5335 14.736V50H57.2375V14.736H64.5335ZM91.9045 14.16C94.6778 14.16 97.1525 14.736 99.3285 15.888C101.547 17.04 103.275 18.7467 104.513 21.008C105.75 23.2693 106.369 26 106.369 29.2V50H99.1365V30.288C99.1365 27.1307 98.3472 24.72 96.7685 23.056C95.1898 21.3493 93.0352 20.496 90.3045 20.496C87.5738 20.496 85.3978 21.3493 83.7765 23.056C82.1978 24.72 81.4085 27.1307 81.4085 30.288V50H74.1125V14.736H81.4085V18.768C82.6032 17.3173 84.1178 16.1867 85.9525 15.376C87.8298 14.5653 89.8138 14.16 91.9045 14.16ZM119.387 10.064C118.064 10.064 116.955 9.616 116.059 8.72C115.163 7.824 114.715 6.71467 114.715 5.392C114.715 4.06933 115.163 2.96 116.059 2.064C116.955 1.168 118.064 0.719997 119.387 0.719997C120.667 0.719997 121.755 1.168 122.651 2.064C123.547 2.96 123.995 4.06933 123.995 5.392C123.995 6.71467 123.547 7.824 122.651 8.72C121.755 9.616 120.667 10.064 119.387 10.064ZM122.971 14.736V50H115.675V14.736H122.971ZM147.846 50.576C144.518 50.576 141.51 49.8293 138.822 48.336C136.134 46.8 134.022 44.6667 132.486 41.936C130.95 39.1627 130.182 35.9627 130.182 32.336C130.182 28.752 130.971 25.5733 132.55 22.8C134.129 20.0267 136.283 17.8933 139.014 16.4C141.745 14.9067 144.795 14.16 148.166 14.16C151.537 14.16 154.587 14.9067 157.318 16.4C160.049 17.8933 162.203 20.0267 163.782 22.8C165.361 25.5733 166.15 28.752 166.15 32.336C166.15 35.92 165.339 39.0987 163.718 41.872C162.097 44.6453 159.878 46.8 157.062 48.336C154.289 49.8293 151.217 50.576 147.846 50.576ZM147.846 44.24C149.723 44.24 151.473 43.792 153.094 42.896C154.758 42 156.102 40.656 157.126 38.864C158.15 37.072 158.662 34.896 158.662 32.336C158.662 29.776 158.171 27.6213 157.19 25.872C156.209 24.08 154.907 22.736 153.286 21.84C151.665 20.944 149.915 20.496 148.038 20.496C146.161 20.496 144.411 20.944 142.79 21.84C141.211 22.736 139.953 24.08 139.014 25.872C138.075 27.6213 137.606 29.776 137.606 32.336C137.606 36.1333 138.566 39.0773 140.486 41.168C142.449 43.216 144.902 44.24 147.846 44.24ZM191.155 14.16C193.928 14.16 196.403 14.736 198.579 15.888C200.797 17.04 202.525 18.7467 203.763 21.008C205 23.2693 205.619 26 205.619 29.2V50H198.387V30.288C198.387 27.1307 197.597 24.72 196.019 23.056C194.44 21.3493 192.285 20.496 189.555 20.496C186.824 20.496 184.648 21.3493 183.027 23.056C181.448 24.72 180.659 27.1307 180.659 30.288V50H173.363V14.736H180.659V18.768C181.853 17.3173 183.368 16.1867 185.203 15.376C187.08 14.5653 189.064 14.16 191.155 14.16Z" fill="url(#paint0_angular)"/>
<path d="M246.206 50.448C243.219 50.448 240.531 49.936 238.142 48.912C235.753 47.8453 233.875 46.352 232.51 44.432C231.145 42.512 230.462 40.272 230.462 37.712H238.27C238.441 39.632 239.187 41.2107 240.51 42.448C241.875 43.6853 243.774 44.304 246.206 44.304C248.723 44.304 250.686 43.7067 252.094 42.512C253.502 41.2747 254.206 39.696 254.206 37.776C254.206 36.2827 253.758 35.0667 252.862 34.128C252.009 33.1893 250.921 32.464 249.598 31.952C248.318 31.44 246.526 30.8853 244.222 30.288C241.321 29.52 238.953 28.752 237.118 27.984C235.326 27.1733 233.79 25.936 232.51 24.272C231.23 22.608 230.59 20.3893 230.59 17.616C230.59 15.056 231.23 12.816 232.51 10.896C233.79 8.976 235.582 7.504 237.886 6.48C240.19 5.456 242.857 4.944 245.886 4.944C250.195 4.944 253.715 6.032 256.446 8.208C259.219 10.3413 260.755 13.2853 261.054 17.04H252.99C252.862 15.4187 252.094 14.032 250.686 12.88C249.278 11.728 247.422 11.152 245.118 11.152C243.027 11.152 241.321 11.6853 239.998 12.752C238.675 13.8187 238.014 15.3547 238.014 17.36C238.014 18.7253 238.419 19.856 239.23 20.752C240.083 21.6053 241.15 22.288 242.43 22.8C243.71 23.312 245.459 23.8667 247.678 24.464C250.622 25.2747 253.011 26.0853 254.846 26.896C256.723 27.7067 258.302 28.9653 259.582 30.672C260.905 32.336 261.566 34.576 261.566 37.392C261.566 39.6533 260.947 41.7867 259.71 43.792C258.515 45.7973 256.745 47.4187 254.398 48.656C252.094 49.8507 249.363 50.448 246.206 50.448ZM278.687 20.688V40.208C278.687 41.5307 278.986 42.4907 279.583 43.088C280.223 43.6427 281.29 43.92 282.783 43.92H287.263V50H281.503C278.218 50 275.7 49.232 273.951 47.696C272.202 46.16 271.327 43.664 271.327 40.208V20.688H267.167V14.736H271.327V5.968H278.687V14.736H287.263V20.688H278.687ZM309.284 50.576C305.956 50.576 302.948 49.8293 300.26 48.336C297.572 46.8 295.46 44.6667 293.924 41.936C292.388 39.1627 291.62 35.9627 291.62 32.336C291.62 28.752 292.409 25.5733 293.988 22.8C295.566 20.0267 297.721 17.8933 300.452 16.4C303.182 14.9067 306.233 14.16 309.604 14.16C312.974 14.16 316.025 14.9067 318.756 16.4C321.486 17.8933 323.641 20.0267 325.22 22.8C326.798 25.5733 327.588 28.752 327.588 32.336C327.588 35.92 326.777 39.0987 325.156 41.872C323.534 44.6453 321.316 46.8 318.5 48.336C315.726 49.8293 312.654 50.576 309.284 50.576ZM309.284 44.24C311.161 44.24 312.91 43.792 314.532 42.896C316.196 42 317.54 40.656 318.564 38.864C319.588 37.072 320.1 34.896 320.1 32.336C320.1 29.776 319.609 27.6213 318.628 25.872C317.646 24.08 316.345 22.736 314.724 21.84C313.102 20.944 311.353 20.496 309.476 20.496C307.598 20.496 305.849 20.944 304.228 21.84C302.649 22.736 301.39 24.08 300.452 25.872C299.513 27.6213 299.044 29.776 299.044 32.336C299.044 36.1333 300.004 39.0773 301.924 41.168C303.886 43.216 306.34 44.24 309.284 44.24ZM342.096 19.856C343.163 18.064 344.571 16.6773 346.32 15.696C348.112 14.672 350.224 14.16 352.656 14.16V21.712H350.8C347.941 21.712 345.765 22.4373 344.272 23.888C342.821 25.3387 342.096 27.856 342.096 31.44V50H334.8V14.736H342.096V19.856ZM391.683 31.504C391.683 32.8267 391.597 34.0213 391.427 35.088H364.483C364.696 37.904 365.741 40.1653 367.619 41.872C369.496 43.5787 371.8 44.432 374.531 44.432C378.456 44.432 381.229 42.7893 382.851 39.504H390.722C389.656 42.7467 387.715 45.4133 384.899 47.504C382.125 49.552 378.669 50.576 374.531 50.576C371.16 50.576 368.131 49.8293 365.443 48.336C362.797 46.8 360.707 44.6667 359.171 41.936C357.677 39.1627 356.931 35.9627 356.931 32.336C356.931 28.7093 357.656 25.5307 359.107 22.8C360.6 20.0267 362.669 17.8933 365.315 16.4C368.003 14.9067 371.075 14.16 374.531 14.16C377.859 14.16 380.824 14.8853 383.427 16.336C386.029 17.7867 388.056 19.8347 389.507 22.48C390.957 25.0827 391.683 28.0907 391.683 31.504ZM384.067 29.2C384.024 26.512 383.064 24.3573 381.187 22.736C379.309 21.1147 376.984 20.304 374.211 20.304C371.693 20.304 369.539 21.1147 367.747 22.736C365.955 24.3147 364.888 26.4693 364.547 29.2H384.067Z" fill="url(#paint1_angular)"/>
<defs>
<radialGradient id="paint0_angular" cx="0" cy="0" r="1" gradientUnits="userSpaceOnUse" gradientTransform="translate(195.5 28) rotate(90) scale(48 199.5)">
<stop stop-color="#3C3B3F"/>
<stop offset="1" stop-color="#605C3C"/>
</radialGradient>
<radialGradient id="paint1_angular" cx="0" cy="0" r="1" gradientUnits="userSpaceOnUse" gradientTransform="translate(195.5 28) rotate(90) scale(48 199.5)">
<stop stop-color="#FFD200"/>
<stop offset="1" stop-color="#F7971E"/>
</radialGradient>
</defs>
</svg>
